# AST/ASF file generated using VICON BodyLanguage
# -----------------------------------------------
:version 1.10
:name VICON
:units
  mass 1.0
  length 0.45
  angle deg
:documentation
   .ast/.asf automatically generated from VICON data using
   VICON BodyBuilder and BodyLanguage model FoxedUp or BRILLIANT.MOD
:root
   order TX TY TZ RX RY RZ
   axis XYZ
   position 0 0 0  
   orientation 0 0 0 
:bonedata
  begin
     id 1 
     name lhipjoint
     direction 0.643824 -0.71708 0.266994 
     length 2.52133 
     axis 0 0 0  XYZ
  end
  begin
     id 2 
     name lfemur
     direction 0.34202 -0.939693 0  
     length 7.51824  
     axis 0 0 20  XYZ
    dof rx ry rz
    limits (-160.0 20.0)
           (-70.0 70.0)
           (-60.0 70.0)
  end
  begin
     id 3 
     name ltibia
     direction 0.34202 -0.939693 0   
     length 7.3685   
     axis 0 0 20   XYZ
    dof rx
    limits (-10.0 170.0)
  end
  begin
     id 4 
     name lfoot
     direction 0.105419 -0.289636 0.951314   
     length 2.20972   
     axis -90 7.62852e-016 20   XYZ
    dof rx rz
    limits (-45.0 90.0)
           (-70.0 20.0)
  end
  begin
     id 5 
     name ltoes
     direction 1.53549e-011 -4.21833e-011 1   
     length 1.10139   
     axis -90 7.62852e-016 20   XYZ
    dof rx
    limits (-90.0 20.0)
  end
  begin
     id 6 
     name rhipjoint
     direction -0.608823 -0.743445 0.276811   
     length 2.43192  
     axis 0 0 0  XYZ 
  end
  begin
     id 7 
     name rfemur
     direction -0.34202 -0.939693 0   
     length 7.69715   
     axis 0 0 -20   XYZ
    dof rx ry rz
    limits (-160.0 20.0)
           (-70.0 70.0)
           (-70.0 60.0)
  end
  begin
     id 8 
     name rtibia
     direction -0.34202 -0.939693 0   
     length 7.44924   
     axis 0 0 -20   XYZ
    dof rx
    limits (-10.0 170.0)
 end
 begin
     id 9 
     name rfoot
     direction -0.103614 -0.284677 0.953007   
     length 2.22623  
     axis -90 -7.62852e-016 -20   XYZ
    dof rx rz
    limits (-45.0 90.0)
           (-20.0 70.0)
  end
  begin
     id 10 
     name rtoes
     direction -1.53537e-011 -4.22026e-011 1   
     length 1.11   
     axis -90 -7.62852e-016 -20   XYZ
    dof rx
    limits (-90.0 20.0)
  end
  begin
     id 11 
     name lowerback
     direction -0.0101212 0.99662 -0.0815298   
     length 2.08277   
     axis 0 0 0   XYZ
    dof rx ry rz
    limits (-20.0 45.0)
           (-30.0 30.0)
           (-30.0 30.0)
  end
  begin
     id 12 
     name upperback
     direction 0.024314 0.999591 -0.0150645   
     length 2.08524   
     axis 0 0 0   XYZ
    dof rx ry rz
    limits (-20.0 45.0)
           (-30.0 30.0)
           (-30.0 30.0)
  end
  begin
     id 13 
     name thorax
     direction 0.0285959 0.999323 0.0231357   
     length 2.09645   
     axis 0 0 0   XYZ
    dof rx ry rz
    limits (-20.0 45.0)
           (-30.0 30.0)
           (-30.0 30.0)
  end
  begin
     id 14 
     name lowerneck
     direction -0.065512 0.979301 0.191515   
     length 1.63798   
     axis 0 0 0   XYZ
    dof rx ry rz
    limits (-20.0 45.0)
           (-30.0 30.0)
           (-30.0 30.0)
  end
  begin
     id 15 
     name upperneck
     direction 0.0498479 0.98191 -0.182667   
     length 1.68731   
     axis 0 0 0   XYZ
    dof rx ry rz
    limits (-20.0 45.0)
           (-30.0 30.0)
           (-30.0 30.0)
  end
  begin
     id 16
     name head
     direction 0.0230358 0.996257 -0.0833175  
     length 1.69785  
     axis 0 0 0   XYZ
    dof rx ry rz
    limits (-20.0 45.0)
           (-30.0 30.0)
           (-30.0 30.0)
  end
  begin
     id 17 
     name lclavicle
     direction 0.967963 0.201165 -0.150269  
     length 3.63976  
     axis 0 0 0   XYZ
    dof ry rz
    limits (-20.0 10.0)
           (0.0 20.0)
  end
  begin
     id 18 
     name lhumerus
     direction 1 -4.48954e-011 -2.92837e-028   
     length 5.32462   
     axis 180 -30 -90   XYZ
    dof rx ry rz
    limits (-60.0 90.0)
           (-90.0 90.0)
           (-90.0 90.0)
  end
  begin
     id 19
     name lradius
     direction 1 -4.48958e-011 -6.39511e-027   
     length 3.48402   
     axis 180 -30 -90   XYZ
    dof rx
    limits (-10.0 170.0)
  end
  begin
     id 20
     name lwrist
     direction 1 -4.48975e-011 -1.1413e-026   
     length 1.74201   
     axis 6.88575e-015 90 90   XYZ
    dof ry
    limits (-180.0 0.0)
 end
  begin
     id 21 
     name lhand
     direction 1 -4.48899e-011 -2.28192e-026   
     length 0.572476   
     axis 1.45643e-014 90 90   XYZ
    dof rx rz
    limits (-90.0 90.0)
           (-45.0 45.0)
  end
  begin
     id 22 
     name lfingers
     direction 1 -4.49155e-011 -4.5684e-026   
     length 0.461545   
     axis 2.91283e-014 90 90   XYZ
    dof rx
    limits (0.0 90.0)
  end
  begin
     id 23
     name lthumb
     direction 0.707107 -6.34943e-011 0.707107   
     length 0.662688   
     axis -90 45 -2.25915e-014   XYZ
    dof rx rz
    limits (-45.0 45.0)
           (-45.0 45.0)
  end
  begin
     id 24 
     name rclavicle
     direction -0.964103 0.264019 -0.0282629   
     length 3.54491  
     axis 0 0 0   XYZ 
    dof ry rz
    limits (-10.0 20.0)
           (-20.0 0.0)
  end
  begin
     id 25 
     name rhumerus
     direction -1 -4.48964e-011 -2.45032e-027  
     length 5.33589   
     axis 180 30 90   XYZ
    dof rx ry rz
    limits (-90.0 60.0)
           (-90.0 90.0)
           (-90.0 90.0)
  end
  begin
     id 26 
     name rradius
     direction -1 -4.48987e-011 -1.55093e-027   
     length 3.64134   
     axis 180 30 90   XYZ
    dof rx
    limits (-10.0 170.0)
  end
  begin
     id 27 
     name rwrist
     direction -1 -4.4897e-011 -1.14128e-026   
     length 1.82067   
     axis 6.88575e-015 -90 -90   XYZ
    dof ry
    limits (-180.0 0.0)
  end
  begin
     id 28
     name rhand
     direction -1 -4.49021e-011 -2.28301e-026   
     length 0.734811   
     axis 1.45643e-014 -90 -90   XYZ
    dof rx rz
    limits (-90.0 90.0)
           (-45.0 45.0)
  end
  begin
     id 29
     name rfingers
     direction -1 -4.48862e-011 -4.56319e-026   
     length 0.592424   
     axis 2.91283e-014 -90 -90   XYZ
    dof rx
    limits (0.0 90.0)
  end
  begin
     id 30
     name rthumb
     direction -0.707107 -6.34978e-011 0.707107   
     length 0.850605   
     axis -90 -45 2.25915e-014   XYZ
    dof rx rz
    limits (-45.0 45.0)
           (-45.0 45.0)
  end
:hierarchy
  begin
    root lhipjoint rhipjoint lowerback
    lhipjoint lfemur
    lfemur ltibia
    ltibia lfoot
    lfoot ltoes
    rhipjoint rfemur
    rfemur rtibia
    rtibia rfoot
    rfoot rtoes
    lowerback upperback
    upperback thorax
    thorax lowerneck lclavicle rclavicle
    lowerneck upperneck
    upperneck head
    lclavicle lhumerus
    lhumerus lradius
    lradius lwrist
    lwrist lhand lthumb
    lhand lfingers
    rclavicle rhumerus
    rhumerus rradius
    rradius rwrist
    rwrist rhand rthumb
    rhand rfingers
  end

#!OML:ASF F:\VICON\USERDATA\INSTALL\rory3\rory3.ASF
:FULLY-SPECIFIED
:DEGREES
265
root 0.613988 17.4048 1.92445 2.05643 9.91144 -0.420999
lowerback 12.5091 4.98132 3.23417
upperback 1.52867 7.15437 1.90103
thorax -5.21921 3.47055 -1.0019
lowerneck -32.8353 -4.87595 -8.94802
upperneck -3.34467 -3.17119 6.23397
head 3.9474 -0.928572 3.08819
rclavicle -4.01545e-014 -3.97569e-015
rhumerus 58.6399 -25.5879 -48.6286
rradius 59.9172
rwrist 36.1102
rhand -61.1336 -5.97261
rfingers 7.12502
rthumb -33.2303 -32.9239
lclavicle -4.01545e-014 -3.97569e-015
lhumerus -24.431 -4.49331 75.686
lradius 62.367
lwrist -3.10671
lhand -22.467 26.3546
lfingers 7.12502
lthumb 3.95785 56.2976
rfemur -12.5678 -8.26264 10.64
rtibia 36.0421
rfoot -22.6444 -11.7834
rtoes -1.95373
lfemur -21.0529 -3.73029 -15.5778
ltibia 37.7162
lfoot -15.9414 -5.09362
ltoes -15.7711
266
root 0.618247 17.4118 1.96424 1.93264 10.3302 -0.777589
lowerback 12.1926 5.089 3.18551
upperback 1.41146 7.26582 1.62146
thorax -5.13299 3.52619 -1.25688
lowerneck -32.6654 -5.36343 -9.05853
upperneck -3.40199 -3.7959 6.65046
head 3.96888 -1.2008 3.1675
rclavicle -3.24019e-014 7.95139e-016
rhumerus 58.9969 -26.4359 -48.797
rradius 59.0104
rwrist 35.9208
rhand -60.8809 -7.36606
rfingers 7.12502
rthumb -32.99 -34.3684
lclavicle -3.24019e-014 7.95139e-016
lhumerus -24.7501 -3.49358 74.7869
lradius 62.3885
lwrist -3.11614
lhand -21.751 26.0015
lfingers 7.12502
lthumb 4.64918 55.9305
rfemur -11.9903 -8.22995 11.0464
rtibia 35.5648
rfoot -22.8258 -12.0832
rtoes -1.58784
lfemur -20.8985 -3.87794 -15.1783
ltibia 37.6739
lfoot -16.013 -5.42214
ltoes -15.6177
267
root 0.622829 17.419 2.00563 1.79888 10.8843 -1.04
lowerback 11.9354 5.14356 3.0729
upperback 1.27259 7.30165 1.32336
thorax -5.10987 3.54386 -1.49094
lowerneck -32.587 -5.85502 -9.17556
upperneck -3.28832 -4.42205 7.04155
head 4.0591 -1.476 3.23678
rclavicle -7.51406e-014 -1.59028e-014
rhumerus 59.2597 -27.2265 -48.8485
rradius 58.1509
rwrist 35.8059
rhand -60.9079 -8.75031
rfingers 7.12502
rthumb -33.0157 -35.7472
lclavicle -7.51406e-014 -1.59028e-014
lhumerus -25.0212 -2.47049 73.901
lradius 62.3894
lwrist -3.50479
lhand -21.1944 26.6807
lfingers 7.12502
lthumb 5.18667 56.5972
rfemur -11.3425 -8.24173 11.3513
rtibia 35.0898
rfoot -23.0636 -12.469
rtoes -1.2959
lfemur -20.7226 -4.11537 -14.8923
ltibia 37.619
lfoot -16.1157 -5.75116
ltoes -15.6205
268
root 0.628199 17.4267 2.04501 1.70946 11.6608 -1.29428
lowerback 11.6137 5.12635 2.93347
upperback 1.15713 7.24076 1.09834
thorax -5.04309 3.51671 -1.61238
lowerneck -32.5731 -6.3767 -9.43831
upperneck -3.14241 -5.03154 7.45391
head 4.17255 -1.73891 3.3358
rclavicle 1.05356e-014 5.56597e-015
rhumerus 59.7425 -27.9945 -49.0301
rradius 57.1657
rwrist 35.9859
rhand -61.0267 -9.34506
rfingers 7.12502
rthumb -33.1288 -36.318
lclavicle 1.05356e-014 5.56597e-015
lhumerus -25.2523 -1.40213 73.1797
lradius 62.4334
lwrist -3.69521
lhand -21.0472 26.022
lfingers 7.12502
lthumb 5.32874 55.935
rfemur -10.6979 -8.51445 11.6508
rtibia 34.6276
rfoot -23.3001 -12.858
rtoes -1.62728
lfemur -20.6465 -4.5078 -14.6188
ltibia 37.5468
lfoot -16.2258 -6.0871
ltoes -15.8363
269
root 0.633281 17.4355 2.07988 1.61632 12.3662 -1.54042
lowerback 11.3016 5.09981 2.79622
upperback 1.10485 7.16706 0.872333
thorax -4.91528 3.48517 -1.7313
lowerneck -32.5147 -6.85429 -9.68746
upperneck -3.16257 -5.58521 7.84857
head 4.22516 -1.97515 3.43405
rclavicle -5.04913e-014 -7.15625e-015
rhumerus 60.5578 -28.7547 -49.4688
rradius 56.0152
rwrist 36.3265
rhand -61.193 -9.39193
rfingers 7.12502
rthumb -33.2868 -36.3312
lclavicle -5.04913e-014 -7.15625e-015
lhumerus -25.5099 -0.510657 72.4836
lradius 62.6299
lwrist -3.26543
lhand -21.688 25.5576
lfingers 7.12502
lthumb 4.71002 55.4852
rfemur -10.1063 -8.75205 11.9552
rtibia 34.1871
rfoot -23.5044 -13.2887
rtoes -1.89237
lfemur -20.5877 -4.88442 -14.3548
ltibia 37.4615
lfoot -16.2663 -6.43274
ltoes -16.0478
270
root 0.640807 17.444 2.11378 1.64198 12.8377 -1.67548
lowerback 10.9523 5.19613 2.59896
upperback 0.979199 7.24582 0.544932
thorax -4.83133 3.52728 -1.94377
lowerneck -32.2648 -7.33367 -9.91125
upperneck -3.28311 -6.16951 8.27499
head 4.23027 -2.22791 3.53572
rclavicle 2.82771e-014 1.31198e-014
rhumerus 61.2482 -29.5895 -49.8266
rradius 54.7649
rwrist 36.6646
rhand -61.4141 -8.99566
rfingers 7.12502
rthumb -33.497 -35.8897
lclavicle 2.82771e-014 1.31198e-014
lhumerus -25.8082 0.0603814 71.7191
lradius 62.8712
lwrist -2.90493
lhand -22.1458 25.0686
lfingers 7.12502
lthumb 4.26796 55.0056
rfemur -9.71233 -8.9469 12.1169
rtibia 33.7519
rfoot -23.5405 -13.5727
rtoes -2.16011
lfemur -20.5955 -5.09332 -14.2283
ltibia 37.3964
lfoot -16.2914 -6.66891
ltoes -16.3518
271
root 0.645522 17.4505 2.14481 1.71794 13.3888 -1.76765
lowerback 10.6568 5.25179 2.34068
upperback 0.751856 7.26837 0.201756
thorax -4.8915 3.5382 -2.14315
lowerneck -31.7446 -7.77189 -10.2172
upperneck -3.46604 -6.70926 8.79452
head 4.19139 -2.46018 3.68888
rclavicle -4.03284e-014 -6.75868e-015
rhumerus 61.9014 -30.2692 -50.3414
rradius 53.5833
rwrist 37.0383
rhand -61.3929 -9.16606
rfingers 7.12502
rthumb -33.4768 -36.0644
lclavicle -4.03284e-014 -6.75868e-015
lhumerus -26.3201 0.574797 70.8748
lradius 63.1819
lwrist -2.70676
lhand -21.9479 24.4046
lfingers 7.12502
lthumb 4.45912 54.3376
rfemur -9.38065 -9.11227 12.25
rtibia 33.3207
rfoot -23.6134 -13.9405
rtoes -2.28603
lfemur -20.6713 -5.34203 -14.1352
ltibia 37.3555
lfoot -16.3789 -6.91091
ltoes -16.5136
272
root 0.646891 17.4541 2.1701 1.61844 14.0964 -2.08977
lowerback 10.6645 5.21315 2.31132
upperback 0.543855 7.20533 -0.0452338
thorax -5.08851 3.49881 -2.38744
lowerneck -31.4998 -8.19903 -10.5221
upperneck -3.44934 -7.21674 9.29097
head 4.24963 -2.67306 3.83374
rclavicle -9.48948e-014 -4.47266e-015
rhumerus 62.8191 -30.8466 -51.127
rradius 52.4479
rwrist 37.4017
rhand -61.0777 -9.73176
rfingers 7.12502
rthumb -33.1772 -36.6944
lclavicle -9.48948e-014 -4.47266e-015
lhumerus -26.8337 1.07968 70.0755
lradius 63.5252
lwrist -2.40024
lhand -21.3201 23.8366
lfingers 7.12502
lthumb 5.06527 53.7561
rfemur -8.89268 -9.24425 12.6562
rtibia 32.8907
rfoot -23.8438 -14.4931
rtoes -2.28772
lfemur -20.6862 -5.65498 -13.7733
ltibia 37.341
lfoot -16.4395 -7.3171
ltoes -16.3203
273
root 0.650932 17.4576 2.19465 1.53552 14.7154 -2.41068
lowerback 10.5656 5.18093 2.33606
upperback 0.47104 7.15223 -0.277646
thorax -5.07939 3.46982 -2.62741
lowerneck -31.4952 -8.67526 -10.8496
upperneck -3.45029 -7.75072 9.79579
head 4.33784 -2.89016 3.97821
rclavicle -1.06213e-013 1.00386e-014
rhumerus 64.2087 -31.3816 -51.9429
rradius 51.031
rwrist 37.4273
rhand -60.5968 -9.74082
rfingers 7.12502
rthumb -32.7198 -36.7997
lclavicle -1.06213e-013 1.00386e-014
lhumerus -27.1099 1.75682 69.3493
lradius 63.7388
lwrist -2.19997
lhand -20.3335 22.9471
lfingers 7.12502
lthumb 6.01782 52.8416
rfemur -8.44259 -9.25308 13.0638
rtibia 32.4764
rfoot -24.2003 -14.823
rtoes -1.71391
lfemur -20.7201 -5.90808 -13.4132
ltibia 37.3339
lfoot -16.4974 -7.69779
ltoes -16.1022
274
root 0.657228 17.4637 2.22335 1.60126 15.1321 -2.63558
lowerback 10.2293 5.19933 2.28706
upperback 0.373271 7.14938 -0.58008
thorax -4.96156 3.46988 -2.88246
lowerneck -31.2381 -9.10468 -11.1285
upperneck -3.60148 -8.26969 10.3571
head 4.35353 -3.10442 4.13877
rclavicle 8.69683e-015 -6.16232e-015
rhumerus 65.5838 -31.8324 -52.5044
rradius 49.5221
rwrist 37.0313
rhand -59.9751 -10.2811
rfingers 7.12502
rthumb -32.1281 -37.4613
lclavicle 8.69683e-015 -6.16232e-015
lhumerus -27.4586 2.41533 68.5463
lradius 63.9561
lwrist -2.13619
lhand -20.3079 22.9892
lfingers 7.12502
lthumb 6.0426 52.883
rfemur -8.18578 -9.20734 13.3667
rtibia 32.0808
rfoot -24.3857 -15.0937
rtoes -0.930272
lfemur -20.8351 -6.06632 -13.155
ltibia 37.324
lfoot -16.5974 -7.95391
ltoes -16.0262
275
root 0.665184 17.4719 2.25122 1.69422 15.4873 -2.76194
lowerback 9.98332 5.22067 2.14655
upperback 0.190935 7.14236 -0.911048
thorax -4.99052 3.46474 -3.13208
lowerneck -30.9434 -9.39361 -11.0711
upperneck -3.62074 -8.71713 10.5476
head 4.39637 -3.31696 4.11633
rclavicle 8.84592e-015 -5.96354e-015
rhumerus 66.6345 -32.2152 -52.8285
rradius 48.2626
rwrist 36.5489
rhand -59.4665 -11.2482
rfingers 7.12502
rthumb -31.6438 -38.5249
lclavicle 8.84592e-015 -5.96354e-015
lhumerus -28.0553 2.89194 67.6926
lradius 64.2766
lwrist -2.03826
lhand -21.3265 23.904
lfingers 7.12502
lthumb 5.05913 53.8236
rfemur -7.97368 -9.3238 13.5314
rtibia 31.7192
rfoot -24.2946 -15.3528
rtoes -0.723793
lfemur -20.9386 -6.22101 -13.0142
ltibia 37.3163
lfoot -16.7023 -8.15173
ltoes -15.9466
276
root 0.672762 17.4812 2.27741 1.7501 15.7458 -2.93179
lowerback 9.84036 5.27688 2.062
upperback 0.0203454 7.19155 -1.21273
thorax -5.05792 3.48512 -3.3997
lowerneck -30.7427 -9.61661 -10.8827
upperneck -3.61046 -9.09449 10.5167
head 4.40297 -3.50885 4.02445
rclavicle 6.24184e-014 -1.03368e-014
rhumerus 67.7744 -32.5081 -53.3356
rradius 47.1767
rwrist 36.1464
rhand -58.4903 -11.7871
rfingers 7.12502
rthumb -30.7134 -39.2428
lclavicle 6.24184e-014 -1.03368e-014
lhumerus -28.6633 3.26081 66.857
lradius 64.5977
lwrist -1.8409
lhand -21.9645 24.1454
lfingers 7.12502
lthumb 4.44302 54.0788
rfemur -7.78513 -9.36938 13.7385
rtibia 31.3918
rfoot -24.2928 -15.6124
rtoes -1.0855
lfemur -20.9873 -6.32883 -12.8165
ltibia 37.2985
lfoot -16.7679 -8.34209
ltoes -15.635
